<?xml version="1.0" standalone="no"?>
<!DOCTYPE svg PUBLIC "-//W3C//DTD SVG 20010904//EN"
 "http://www.w3.org/TR/2001/REC-SVG-20010904/DTD/svg10.dtd">
<svg version="1.0" xmlns="http://www.w3.org/2000/svg"
 width="300.000000pt" height="300.000000pt" viewBox="0 0 300.000000 300.000000"
 preserveAspectRatio="xMidYMid meet">
<metadata>
Created by potrace 1.11, written by Peter Selinger 2001-2013
</metadata>
<g transform="translate(0.000000,300.000000) scale(0.100000,-0.100000)"
fill="#000000" stroke="none">
<path d="M835 2433 c-324 -34 -564 -247 -648 -574 -14 -52 -28 -123 -32 -159
-7 -68 -7 -288 0 -331 2 -13 6 -42 10 -64 28 -191 124 -380 252 -495 52 -46
187 -123 238 -135 114 -28 165 -35 255 -36 164 -3 280 17 433 73 l87 32 1 106
c0 58 1 185 0 283 l0 177 64 0 c36 0 65 3 66 8 0 4 1 40 2 80 l2 72 -90 1
c-92 0 -376 0 -431 -1 l-31 0 1 -80 1 -80 112 0 113 0 1 -32 c4 -139 -1 -412
-8 -418 -4 -5 -53 -16 -108 -25 -509 -86 -777 166 -770 726 3 198 21 292 80
417 62 130 185 228 330 261 64 15 194 19 284 10 69 -8 190 -34 200 -45 3 -3 5
-67 6 -142 l0 -137 88 -3 c78 -2 87 -1 87 15 1 10 1 103 2 208 l0 190 -77 27
c-83 29 -181 53 -257 63 -55 8 -219 12 -263 8z"/>
<path d="M2230 2429 c-106 -17 -138 -27 -210 -62 -118 -59 -218 -184 -235
-297 -31 -202 28 -356 178 -458 61 -42 115 -68 257 -124 257 -101 348 -161
390 -260 43 -101 26 -226 -43 -304 -77 -87 -185 -120 -364 -111 -112 6 -146
11 -200 28 l-33 11 0 119 0 119 -85 0 c-47 0 -86 -3 -86 -7 -1 -5 -2 -86 -3
-181 -2 -195 -8 -180 82 -208 253 -78 501 -77 679 1 124 55 224 164 259 280
21 72 24 217 5 292 -18 74 -79 163 -148 218 -67 53 -145 92 -365 181 -177 71
-219 95 -267 150 -45 51 -61 93 -62 164 -2 120 77 222 200 261 82 25 220 27
314 5 109 -26 104 -19 104 -141 0 -58 3 -108 7 -112 12 -12 166 -11 167 1 1
14 1 293 0 326 -1 22 -11 29 -73 53 -40 15 -106 34 -147 43 -84 17 -253 24
-321 13z"/>
</g>
</svg>
